<svg width="350" height="350" viewBox="0 0 350 350" fill="none" xmlns="http://www.w3.org/2000/svg">
<circle cx="174.793" cy="174.759" r="141.793" fill="white"/>
<mask id="mask0_201_1929" style="mask-type:alpha" maskUnits="userSpaceOnUse" x="0" y="0" width="350" height="350">
<circle cx="175" cy="175" r="175" fill="white"/>
</mask>
<g mask="url(#mask0_201_1929)">
<path d="M236.99 247.168C234.85 243.674 231.741 240.921 228.064 239.275C224.386 237.629 220.31 237.153 216.375 237.921C212.431 238.69 208.807 240.656 205.965 243.573C203.123 246.491 201.195 250.213 200.44 254.274C197.314 255.317 194.649 257.484 192.935 260.365C191.221 263.246 190.554 266.676 191.061 270.014C191.567 273.353 193.228 276.407 195.724 278.602C198.22 280.806 201.4 282.014 204.686 282.023H235.454C239.939 282.233 244.327 280.596 247.649 277.477C250.971 274.359 252.942 270.005 253.147 265.386C253.351 260.768 251.761 256.25 248.732 252.829C245.703 249.409 241.476 247.378 236.99 247.168Z" fill="#95D6F4"/>
<path d="M214.954 264.849H211.416V227.732H133.153V224.194H213.186C214.164 224.194 214.957 224.986 214.957 225.964V264.851L214.954 264.849Z" fill="#027DB4"/>
<path d="M107.167 198.117C104.033 193.051 99.4808 189.059 94.0963 186.672C88.7119 184.285 82.7421 183.595 76.9805 184.709C71.2059 185.823 65.8995 188.675 61.7376 192.905C57.5757 197.135 54.7534 202.533 53.6479 208.421C49.0698 209.933 45.168 213.076 42.6578 217.253C40.1477 221.431 39.1722 226.404 39.9136 231.244C40.6549 236.085 43.087 240.514 46.7417 243.697C50.3964 246.893 55.0525 248.643 59.8647 248.657H104.917C111.485 248.962 117.91 246.588 122.774 242.066C127.639 237.543 130.526 231.231 130.825 224.534C131.124 217.837 128.796 211.286 124.361 206.326C119.926 201.366 113.735 198.422 107.167 198.117Z" fill="#95D6F4"/>
<path d="M159.414 110.635L123.025 55.2051L86.6382 110.635H102.81V306.753H143.24V110.635H159.414Z" fill="#FFD42F"/>
<path d="M129.926 294.475C128.627 292.379 126.739 290.727 124.507 289.739C122.274 288.752 119.799 288.466 117.41 288.927C115.015 289.388 112.815 290.568 111.089 292.319C109.364 294.069 108.194 296.302 107.735 298.739C105.837 299.365 104.219 300.665 103.178 302.394C102.138 304.122 101.733 306.18 102.041 308.183C102.348 310.186 103.356 312.019 104.872 313.336C106.387 314.658 108.318 315.383 110.313 315.388H128.993C131.717 315.514 134.381 314.532 136.397 312.661C138.414 310.79 139.611 308.178 139.736 305.406C139.86 302.635 138.894 299.924 137.055 297.872C135.216 295.82 132.65 294.601 129.926 294.475Z" fill="#95D6F4"/>
<path d="M127.349 312.743C131.007 312.743 133.972 309.778 133.972 306.12C133.972 302.463 131.007 299.498 127.349 299.498C123.691 299.498 120.726 302.463 120.726 306.12C120.726 309.778 123.691 312.743 127.349 312.743Z" fill="#027DB4"/>
<path d="M213.177 271.471C216.835 271.471 219.8 268.506 219.8 264.848C219.8 261.19 216.835 258.225 213.177 258.225C209.519 258.225 206.554 261.19 206.554 264.848C206.554 268.506 209.519 271.471 213.177 271.471Z" fill="#027DB4"/>
<path d="M91.4019 219.944C95.0596 219.944 98.0248 216.979 98.0248 213.321C98.0248 209.663 95.0596 206.698 91.4019 206.698C87.7442 206.698 84.7791 209.663 84.7791 213.321C84.7791 216.979 87.7442 219.944 91.4019 219.944Z" fill="#027DB4"/>
<path d="M213.179 308.522H129.552V304.984H211.409V283.535H214.947V306.754C214.947 307.732 214.155 308.524 213.177 308.524L213.179 308.522Z" fill="#027DB4"/>
<path d="M93.1634 213.324H89.6526V158.146H181.324V161.657H93.1634V213.324Z" fill="#027DB4"/>
<path d="M164.433 63.929H161.225C159.977 63.929 158.963 62.9159 158.963 61.6671V58.4597C158.963 56.7369 157.624 55.2699 155.902 55.2072C154.094 55.142 152.609 56.5889 152.609 58.382V61.6646C152.609 62.9134 151.596 63.9265 150.347 63.9265H147.14C145.417 63.9265 143.95 65.2656 143.887 66.9884C143.822 68.7965 145.269 70.281 147.062 70.281H150.344C151.593 70.281 152.606 71.2942 152.606 72.543V75.7504C152.606 77.4732 153.946 78.9402 155.668 79.0029C157.476 79.0681 158.961 77.6211 158.961 75.8281V72.5455C158.961 71.2967 159.974 70.2836 161.223 70.2836H164.506C166.299 70.2836 167.745 68.799 167.68 66.9909C167.615 65.1829 166.151 63.929 164.428 63.929H164.433Z" fill="#FFD42F"/>
</g>
<path d="M279.012 98.8027C272.132 87.7975 262.139 79.1258 250.32 73.9401C238.5 68.7543 225.396 67.2562 212.748 69.6763C200.072 72.0963 188.424 78.2903 179.288 87.4806C170.152 96.6708 163.957 108.396 161.53 121.188C151.481 124.472 142.916 131.3 137.406 140.375C131.896 149.45 129.755 160.254 131.382 170.769C133.009 181.285 138.348 190.907 146.371 197.821C154.393 204.764 164.614 208.567 175.177 208.596H274.073C288.491 209.259 302.594 204.102 313.272 194.278C323.949 184.454 330.287 170.74 330.944 156.191C331.6 141.643 326.49 127.411 316.755 116.636C307.019 105.861 293.43 99.4654 279.012 98.8027Z" fill="#95D6F4"/>
<path d="M222.32 176.226C228.258 176.226 233.073 171.411 233.073 165.473C233.073 159.534 228.258 154.719 222.32 154.719C216.381 154.719 211.566 159.534 211.566 165.473C211.566 171.411 216.381 176.226 222.32 176.226Z" fill="#712010"/>
<path d="M294.83 150.601C294.83 135.522 280.22 132.515 265.141 132.515C253.147 132.515 242.957 140.252 239.292 151.005C234.793 152.037 228.573 153.375 220.931 154.807C204.217 157.938 191.169 184.284 191.169 184.284C189.982 186.013 189.284 188.107 189.284 190.365C189.284 196.305 194.1 201.118 200.037 201.118C204.356 201.118 208.077 198.573 209.788 194.901C209.788 194.901 209.788 194.896 209.788 194.893C210.005 194.425 210.191 193.94 210.339 193.44C211.98 189.307 217.128 177.727 223.762 176.22C228.851 175.065 239.943 173.319 245.498 178.778C250.462 183.918 257.426 187.117 265.136 187.117C266.555 187.117 267.972 187.015 269.369 186.813C282.834 184.847 294.823 173.341 294.823 150.598L294.83 150.601Z" fill="#712010"/>
<path d="M242.367 203.617C242.367 203.617 238.241 187.38 238.241 178.807C238.241 172.867 233.426 168.054 227.488 168.054C221.551 168.054 216.735 172.87 216.735 178.807C216.735 179.153 216.752 179.495 216.784 179.831C217.025 184.354 218.232 202.713 222.273 211.059C222.285 211.088 222.299 211.115 222.312 211.144C224.055 214.731 227.732 217.206 231.989 217.206C237.929 217.206 242.743 212.393 242.743 206.453C242.743 205.473 242.608 204.524 242.362 203.622L242.367 203.617Z" fill="#640208"/>
<path d="M242.744 179.926C242.744 179.926 284.411 195.97 295.846 145.652C302.606 115.909 293.391 192.629 293.391 192.629L254.243 198.613L242.747 179.923L242.744 179.926Z" fill="#95D6F4"/>
<path d="M180.02 202.743C182.81 202.743 185.072 200.481 185.072 197.69C185.072 194.9 182.81 192.638 180.02 192.638C177.23 192.638 174.968 194.9 174.968 197.69C174.968 200.481 177.23 202.743 180.02 202.743Z" fill="#712010"/>
<path d="M223.977 228.643C226.767 228.643 229.029 226.381 229.029 223.591C229.029 220.801 226.767 218.539 223.977 218.539C221.186 218.539 218.924 220.801 218.924 223.591C218.924 226.381 221.186 228.643 223.977 228.643Z" fill="#640208"/>
<path d="M180.019 192.634C180.019 192.634 186.174 193.039 191.389 183.856L200.036 201.124L180.019 202.741V192.634Z" fill="#712010"/>
<path d="M220.401 220.014C220.401 220.014 223.066 214.703 221.408 209.005L240.015 213.611L228.04 226.585L220.401 220.011V220.014Z" fill="#640208"/>
<path d="M294.826 149.2C294.826 164.179 285.124 165.471 270.145 165.471C255.167 165.471 232.822 154.245 239.439 140.807C244.974 129.571 253.301 131.988 260.514 122.763C269.738 110.964 294.826 134.219 294.826 149.197V149.2Z" fill="#D9008D"/>
<path d="M294.828 149.2C294.828 164.179 285.126 165.471 270.147 165.471C255.168 165.471 237.468 154.869 252.386 153.511C278.574 151.126 252.991 119.472 267.97 119.472C282.948 119.472 294.828 134.221 294.828 149.2Z" fill="#EC56B7"/>
<path d="M246.337 113.072L243.782 115.096C242.516 116.1 242.302 117.94 243.306 119.207L249.124 126.55C250.127 127.816 251.967 128.029 253.234 127.026L255.789 125.001C257.056 123.998 257.269 122.157 256.266 120.891L250.448 113.548C249.444 112.281 247.604 112.068 246.337 113.072Z" fill="#FFAA66"/>
<path d="M248.598 116.894C250.088 116.026 250.725 118.008 250.871 119.761C250.983 120.295 251.324 120.334 251.819 120.566C251.517 120.183 251.298 119.19 251.31 118.925C251.28 118.227 251.675 117.679 252.441 118.208C253.238 118.82 253.804 119.927 252.848 120.685C253.885 121.168 254.828 120.783 255.621 120.073L250.442 113.536C249.442 112.275 247.591 112.061 246.331 113.06L243.775 115.084C242.515 116.084 242.3 117.935 243.3 119.195L244.287 120.441C246.262 120.902 246.857 117.74 248.601 116.894H248.598Z" fill="#020226"/>
<path d="M252.267 126.228C253.086 125.579 253.225 124.387 252.574 123.568L249.607 125.921C250.256 126.74 251.448 126.879 252.267 126.228Z" fill="#FFFEFC"/>
<path d="M247.54 113.046C247.406 113.034 247.289 112.953 247.225 112.834C246.786 112.002 245.338 108.667 249.147 106.926C253.521 104.926 257.993 107.082 260.388 110.105C262.038 112.188 263.65 111.432 264.496 110.759C264.76 110.549 265.15 110.732 265.142 111.068C265.116 112.817 264.486 116.455 259.622 115.892C253.353 115.165 251.568 108.103 249.076 112.934C249.003 113.078 248.852 113.163 248.691 113.148L247.54 113.041V113.046Z" fill="#020226"/>
<path d="M248.377 152.2H251.676C254.036 152.2 255.955 154.117 255.955 156.479C255.955 158.84 254.039 160.759 251.676 160.759H245.67C244.056 160.759 242.744 159.447 242.744 157.833C242.744 154.726 245.268 152.203 248.374 152.203L248.377 152.2Z" fill="#FFAA66"/>
<path d="M251.487 160.757H243.767C242.847 160.757 242.101 161.503 242.101 162.423V162.425C242.101 163.345 242.847 164.091 243.767 164.091H251.487C252.406 164.091 253.152 163.345 253.152 162.425V162.423C253.152 161.503 252.406 160.757 251.487 160.757Z" fill="#2A0159"/>
<path d="M247.558 164.089H219.446C217.415 164.089 215.63 162.746 215.067 160.795L211.744 149.284C210.902 146.37 213.09 143.461 216.123 143.461H240.37C242.401 143.461 244.186 144.804 244.749 146.755L249.143 161.978C249.448 163.034 248.655 164.089 247.556 164.089H247.558Z" fill="#3E0084"/>
<path d="M230.904 155.145C230.844 156.852 229.242 157.647 227.71 157.025C226.179 156.403 225.094 154.526 225.169 152.819C225.238 151.241 226.64 149.913 228.222 150.554C230.402 151.439 230.965 153.397 230.904 155.145Z" fill="#A67FFF"/>
</svg>
