<svg width="143" height="31" viewBox="0 0 143 31" fill="none" xmlns="http://www.w3.org/2000/svg">
<path d="M10.08 30H0.4V26.84H3.88V5.16H0.4V2H4.88C7.17333 4.96 9.44 7.92 11.68 10.88C13.9467 13.8133 16.2267 16.76 18.52 19.72C20.8133 16.76 23.08 13.8133 25.32 10.88C27.5867 7.92 29.8667 4.96 32.16 2H36.64V5.16H33.16V26.84H36.64V30H26.96V26.84H29.84V11.2C29.8667 10.9867 29.88 10.7733 29.88 10.56C29.9067 10.3467 29.9333 10.1333 29.96 9.92C29.7467 10.2133 29.5333 10.52 29.32 10.84C29.1067 11.16 28.8933 11.4667 28.68 11.76L18.52 25L7.92 11.12C7.73333 10.88 7.57333 10.68 7.44 10.52C7.33333 10.36 7.21333 10.16 7.08 9.92C7.10667 10.1333 7.13333 10.3467 7.16 10.56C7.18667 10.7733 7.2 10.9867 7.2 11.2V26.84H10.08V30ZM47.4234 17.88C46.6768 17.88 45.9968 18.0133 45.3834 18.28C44.7968 18.52 44.2901 18.8667 43.8634 19.32C43.5434 19.6933 43.2768 20.12 43.0634 20.6C42.8768 21.08 42.7701 21.6 42.7434 22.16C43.9968 21.7067 45.2368 21.2533 46.4634 20.8C47.7168 20.32 48.9701 19.8533 50.2234 19.4C49.8501 18.9467 49.4234 18.5867 48.9434 18.32C48.4901 18.0267 47.9834 17.88 47.4234 17.88ZM52.5034 28.24C51.8368 28.9067 51.0768 29.4267 50.2234 29.8C49.3701 30.1733 48.4368 30.36 47.4234 30.36C46.3034 30.36 45.2501 30.16 44.2634 29.76C43.3034 29.3333 42.4634 28.76 41.7434 28.04C41.0234 27.32 40.4501 26.4933 40.0234 25.56C39.6234 24.6 39.4234 23.5733 39.4234 22.48C39.4234 21.4133 39.6234 20.4 40.0234 19.44C40.4501 18.48 41.0234 17.64 41.7434 16.92C42.4634 16.2267 43.3034 15.68 44.2634 15.28C45.2501 14.8533 46.3034 14.64 47.4234 14.64C48.2501 14.64 49.0368 14.8133 49.7834 15.16C50.5568 15.48 51.2501 15.9333 51.8634 16.52C52.4501 17.1067 52.9701 17.8133 53.4234 18.64C53.8768 19.44 54.2234 20.32 54.4634 21.28C52.6501 21.9467 50.8368 22.6133 49.0234 23.28C47.2368 23.9467 45.4368 24.6133 43.6234 25.28C44.0234 25.84 44.5434 26.2933 45.1834 26.64C45.8501 26.96 46.5968 27.12 47.4234 27.12C48.0368 27.12 48.5968 27.0133 49.1034 26.8C49.6101 26.5867 50.0634 26.2667 50.4634 25.84L52.5034 28.24ZM76.5113 30H70.5513V29.2C70.5513 29.0133 70.5513 28.88 70.5513 28.8C70.5513 28.72 70.5513 28.5867 70.5513 28.4C70.5246 28.48 70.3913 28.6267 70.1513 28.84C69.9113 29.0533 69.5779 29.2667 69.1513 29.48C68.6979 29.72 68.1646 29.92 67.5513 30.08C66.9379 30.2667 66.2446 30.36 65.4713 30.36C64.3513 30.36 63.2979 30.16 62.3113 29.76C61.3246 29.3333 60.4713 28.76 59.7513 28.04C59.0313 27.32 58.4579 26.48 58.0313 25.52C57.6313 24.56 57.4313 23.5467 57.4313 22.48C57.4313 21.4133 57.6313 20.4133 58.0313 19.48C58.4579 18.52 59.0313 17.68 59.7513 16.96C60.4713 16.24 61.3246 15.68 62.3113 15.28C63.2979 14.8533 64.3513 14.64 65.4713 14.64C66.1379 14.64 66.7646 14.7333 67.3513 14.92C67.9646 15.1067 68.4979 15.32 68.9513 15.56C69.4046 15.8 69.7246 16 69.9113 16.16C70.0979 16.2933 70.2179 16.4 70.2713 16.48C70.2179 16.2667 70.1779 16 70.1513 15.68C70.1513 15.3333 70.1513 15.0667 70.1513 14.88V3.16H67.5113V-2.38419e-06H73.4713V26.84H76.5113V30ZM65.4713 17.88C64.7779 17.88 64.1379 18 63.5513 18.24C62.9646 18.48 62.4579 18.8 62.0313 19.2C61.6579 19.6267 61.3513 20.12 61.1113 20.68C60.8979 21.2133 60.7913 21.8133 60.7913 22.48C60.7913 23.1733 60.9246 23.8267 61.1913 24.44C61.4579 25.0533 61.8179 25.56 62.2713 25.96C62.6713 26.3333 63.1379 26.6267 63.6713 26.84C64.2313 27.0267 64.8313 27.12 65.4713 27.12C66.1113 27.12 66.6979 27.0267 67.2313 26.84C67.7646 26.6267 68.2446 26.3333 68.6713 25.96C69.1246 25.56 69.4846 25.0533 69.7513 24.44C70.0179 23.8267 70.1513 23.1733 70.1513 22.48C70.1513 21.7333 70.0046 21.0533 69.7113 20.44C69.4446 19.8267 69.0713 19.32 68.5913 18.92C68.1913 18.6 67.7246 18.3467 67.1913 18.16C66.6579 17.9733 66.0846 17.88 65.4713 17.88ZM88.1862 30H79.3063V26.84H82.1063V18.16H79.3063V15H85.4263V26.84H88.1862V30ZM85.8663 9.2C85.8663 9.81333 85.6529 10.32 85.2263 10.72C84.7996 11.0933 84.3329 11.28 83.8263 11.28C83.2929 11.28 82.8129 11.0933 82.3863 10.72C81.9596 10.32 81.7463 9.81333 81.7463 9.2C81.7463 8.58666 81.9596 8.08 82.3863 7.68C82.8129 7.28 83.2929 7.08 83.8263 7.08C84.3329 7.08 84.7996 7.28 85.2263 7.68C85.6529 8.08 85.8663 8.58666 85.8663 9.2Z" fill="#3E8CFF"/>
<path d="M100.666 30H90.9859V26.84H92.7859V5.16H90.9859V2H99.3859C100.293 2 101.293 2.14667 102.386 2.44C103.506 2.70667 104.546 3.14667 105.506 3.76C106.466 4.37333 107.266 5.16 107.906 6.12C108.546 7.08 108.866 8.24 108.866 9.6C108.866 12.0267 108.146 13.96 106.706 15.4C105.266 16.8133 103.186 17.52 100.466 17.52H96.1059V26.84H100.666V30ZM96.1059 5.16V14.32H99.5859C100.759 14.32 101.719 14.1733 102.466 13.88C103.239 13.56 103.853 13.1733 104.306 12.72C104.759 12.2667 105.079 11.76 105.266 11.2C105.453 10.64 105.546 10.1067 105.546 9.6C105.546 9.01333 105.386 8.45333 105.066 7.92C104.773 7.38667 104.373 6.90667 103.866 6.48C103.333 6.08 102.693 5.76 101.946 5.52C101.226 5.28 100.453 5.16 99.6259 5.16H96.1059ZM130.73 30H124.77V29.2C124.77 29.0133 124.77 28.88 124.77 28.8C124.77 28.72 124.77 28.5867 124.77 28.4C124.743 28.48 124.61 28.6267 124.37 28.84C124.13 29.0533 123.797 29.2667 123.37 29.48C122.917 29.72 122.383 29.92 121.77 30.08C121.157 30.2667 120.463 30.36 119.69 30.36C118.57 30.36 117.517 30.16 116.53 29.76C115.543 29.3333 114.69 28.76 113.97 28.04C113.25 27.32 112.677 26.4933 112.25 25.56C111.85 24.6 111.65 23.5867 111.65 22.52C111.65 21.48 111.85 20.48 112.25 19.52C112.677 18.56 113.25 17.72 113.97 17C114.69 16.28 115.543 15.7067 116.53 15.28C117.517 14.8533 118.57 14.64 119.69 14.64C121.157 14.64 122.317 14.9067 123.17 15.44C124.023 15.9467 124.557 16.4267 124.77 16.88C124.797 16.6133 124.823 16.32 124.85 16C124.903 15.6533 124.93 15.32 124.93 15H127.69V26.84H130.73V30ZM119.69 17.88C118.97 17.88 118.303 18.0133 117.69 18.28C117.077 18.52 116.57 18.8667 116.17 19.32C115.797 19.72 115.503 20.1867 115.29 20.72C115.103 21.2533 115.01 21.84 115.01 22.48C115.01 23.2267 115.157 23.92 115.45 24.56C115.77 25.2 116.197 25.7333 116.73 26.16C117.103 26.4533 117.543 26.6933 118.05 26.88C118.557 27.04 119.103 27.12 119.69 27.12C120.357 27.12 120.957 27.0133 121.49 26.8C122.05 26.5867 122.53 26.2933 122.93 25.92C123.383 25.4933 123.73 24.9867 123.97 24.4C124.237 23.8133 124.37 23.1733 124.37 22.48C124.37 21.7867 124.237 21.1467 123.97 20.56C123.73 19.9733 123.397 19.48 122.97 19.08C122.543 18.7067 122.05 18.4133 121.49 18.2C120.957 17.9867 120.357 17.88 119.69 17.88ZM142.405 30H133.525V26.84H136.565V3.16H133.925V-2.38419e-06H139.885V26.84H142.405V30Z" fill="white"/>
</svg>
